{
  "accessors": [
    {
      "bufferView": 1,
      "componentType": 5126,
      "count": 2718,
      "max": [
        0.9977900981903076,
        0.9977903366088867,
        0.00022421836911235005
      ],
      "min": [
        -0.9977902770042419,
        -0.9977902770042419,
        -0.06303346157073975
      ],
      "type": "VEC3"
    },
    {
      "bufferView": 1,
      "byteOffset": 32616,
      "componentType": 5126,
      "count": 2718,
      "max": [
        1.0,
        1.0,
        1.0
      ],
      "min": [
        -1.0,
        -1.0,
        -1.0
      ],
      "type": "VEC3"
    },
    {
      "bufferView": 0,
      "componentType": 5125,
      "count": 8748,
      "type": "SCALAR"
    },
    {
      "bufferView": 1,
      "byteOffset": 65232,
      "componentType": 5126,
      "count": 290,
      "max": [
        0.9956875443458557,
        0.99568772315979,
        -0.04170578718185425
      ],
      "min": [
        -0.9956876635551453,
        -0.99568772315979,
        -0.07845889031887054
      ],
      "type": "VEC3"
    },
    {
      "bufferView": 1,
      "byteOffset": 68712,
      "componentType": 5126,
      "count": 290,
      "max": [
        0.9544463753700256,
        0.9544463753700256,
        1.0
      ],
      "min": [
        -0.9544463753700256,
        -0.9544463753700256,
        -1.0
      ],
      "type": "VEC3"
    },
    {
      "bufferView": 0,
      "byteOffset": 34992,
      "componentType": 5125,
      "count": 1536,
      "type": "SCALAR"
    }
  ],
  "asset": {
    "extras": {
      "author": "xenera (https://sketchfab.com/xenera)",
      "license": "CC-BY-NC-ND-4.0 (http://creativecommons.org/licenses/by-nc-nd/4.0/)",
      "source": "https://sketchfab.com/3d-models/map-pointer-event-information-1fddf28ac8954a8d850cdc7efafafd8b",
      "title": "map_pointer_Event Information"
    },
    "generator": "Sketchfab-12.68.0",
    "version": "2.0"
  },
  "bufferViews": [
    {
      "buffer": 0,
      "byteLength": 41136,
      "name": "floatBufferViews",
      "target": 34963
    },
    {
      "buffer": 0,
      "byteLength": 72192,
      "byteOffset": 41136,
      "byteStride": 12,
      "name": "floatBufferViews",
      "target": 34962
    }
  ],
  "buffers": [
    {
      "byteLength": 113328,
      "uri": "scene.bin"
    }
  ],
  "materials": [
    {
      "doubleSided": true,
      "name": "white",
      "pbrMetallicRoughness": {
        "metallicFactor": 0.0,
        "roughnessFactor": 0.5
      }
    },
    {
      "doubleSided": true,
      "name": "black",
      "pbrMetallicRoughness": {
        "baseColorFactor": [
          0.00489225,
          0.00489225,
          0.00489225,
          1.0
        ],
        "metallicFactor": 0.0,
        "roughnessFactor": 0.5
      }
    }
  ],
  "meshes": [
    {
      "name": "Object_0",
      "primitives": [
        {
          "attributes": {
            "NORMAL": 1,
            "POSITION": 0
          },
          "indices": 2,
          "material": 0,
          "mode": 4
        }
      ]
    },
    {
      "name": "Object_1",
      "primitives": [
        {
          "attributes": {
            "NORMAL": 4,
            "POSITION": 3
          },
          "indices": 5,
          "material": 1,
          "mode": 4
        }
      ]
    }
  ],
  "nodes": [
    {
      "children": [
        1
      ],
      "matrix": [
        1.0,
        0.0,
        0.0,
        0.0,
        0.0,
        2.220446049250313e-16,
        -1.0,
        0.0,
        0.0,
        1.0,
        2.220446049250313e-16,
        0.0,
        0.0,
        0.0,
        0.0,
        1.0
      ],
      "name": "Sketchfab_model"
    },
    {
      "children": [
        2
      ],
      "name": "root"
    },
    {
      "children": [
        3
      ],
      "matrix": [
        1.0,
        0.0,
        0.0,
        0.0,
        0.0,
        2.220446049250313e-16,
        1.0,
        0.0,
        0.0,
        -1.0,
        2.220446049250313e-16,
        0.0,
        0.0,
        0.0,
        0.0,
        1.0
      ],
      "name": "GLTF_SceneRootNode"
    },
    {
      "children": [
        4,
        5
      ],
      "name": "event_information_0"
    },
    {
      "mesh": 0,
      "name": "Object_4"
    },
    {
      "mesh": 1,
      "name": "Object_5"
    }
  ],
  "scene": 0,
  "scenes": [
    {
      "name": "Sketchfab_Scene",
      "nodes": [
        0
      ]
    }
  ]
}
